<mxfile host="app.diagrams.net" modified="2024-06-14T16:16:23.094Z" agent="Mozilla/5.0 (Windows NT 10.0; Win64; x64) AppleWebKit/537.36 (KHTML, like Gecko) Chrome/125.0.0.0 Safari/537.36" etag="4ka2_cZelzE3eHrNcvcp" version="24.5.4" type="google">
  <diagram id="C5RBs43oDa-KdzZeNtuy" name="Page-1">
    <mxGraphModel grid="1" page="1" gridSize="10" guides="1" tooltips="1" connect="1" arrows="1" fold="1" pageScale="1" pageWidth="827" pageHeight="1169" math="0" shadow="0">
      <root>
        <mxCell id="WIyWlLk6GJQsqaUBKTNV-0" />
        <mxCell id="WIyWlLk6GJQsqaUBKTNV-1" parent="WIyWlLk6GJQsqaUBKTNV-0" />
        <mxCell id="OJAIJrGIk2gUR6cNHhCz-0" value="&lt;&lt;Abstract&gt;&gt;&#xa;Topografia" style="swimlane;fontStyle=0;align=center;verticalAlign=top;childLayout=stackLayout;horizontal=1;startSize=40;horizontalStack=0;resizeParent=1;resizeLast=0;collapsible=1;marginBottom=0;rounded=0;shadow=0;strokeWidth=1;fillColor=#fff2cc;strokeColor=#d6b656;" vertex="1" parent="WIyWlLk6GJQsqaUBKTNV-1">
          <mxGeometry x="240" y="-550" width="280" height="188" as="geometry">
            <mxRectangle x="110" y="-20" width="160" height="26" as="alternateBounds" />
          </mxGeometry>
        </mxCell>
        <mxCell id="OJAIJrGIk2gUR6cNHhCz-1" value="" style="line;html=1;strokeWidth=1;align=left;verticalAlign=middle;spacingTop=-1;spacingLeft=3;spacingRight=3;rotatable=0;labelPosition=right;points=[];portConstraint=eastwest;" vertex="1" parent="OJAIJrGIk2gUR6cNHhCz-0">
          <mxGeometry y="40" width="280" height="8" as="geometry" />
        </mxCell>
        <mxCell id="OJAIJrGIk2gUR6cNHhCz-2" value="Â + &lt;&lt;abstract &gt;&gt;getProporcionAgua() : Real" style="text;align=left;verticalAlign=top;spacingLeft=4;spacingRight=4;overflow=hidden;rotatable=0;points=[[0,0.5],[1,0.5]];portConstraint=eastwest;" vertex="1" parent="OJAIJrGIk2gUR6cNHhCz-0">
          <mxGeometry y="48" width="280" height="26" as="geometry" />
        </mxCell>
        <mxCell id="OJAIJrGIk2gUR6cNHhCz-3" value="+ getProporcionTierra() : Real" style="text;align=left;verticalAlign=top;spacingLeft=4;spacingRight=4;overflow=hidden;rotatable=0;points=[[0,0.5],[1,0.5]];portConstraint=eastwest;rounded=0;shadow=0;html=0;" vertex="1" parent="OJAIJrGIk2gUR6cNHhCz-0">
          <mxGeometry y="74" width="280" height="26" as="geometry" />
        </mxCell>
        <mxCell id="OJAIJrGIk2gUR6cNHhCz-4" value="+ getTopografia() : Object" style="text;align=left;verticalAlign=top;spacingLeft=4;spacingRight=4;overflow=hidden;rotatable=0;points=[[0,0.5],[1,0.5]];portConstraint=eastwest;rounded=0;shadow=0;html=0;" vertex="1" parent="OJAIJrGIk2gUR6cNHhCz-0">
          <mxGeometry y="100" width="280" height="26" as="geometry" />
        </mxCell>
        <mxCell id="OJAIJrGIk2gUR6cNHhCz-5" value="+ compararTopografia() : boolean&#xa;" style="text;align=left;verticalAlign=top;spacingLeft=4;spacingRight=4;overflow=hidden;rotatable=0;points=[[0,0.5],[1,0.5]];portConstraint=eastwest;rounded=0;shadow=0;html=0;" vertex="1" parent="OJAIJrGIk2gUR6cNHhCz-0">
          <mxGeometry y="126" width="280" height="26" as="geometry" />
        </mxCell>
        <mxCell id="OJAIJrGIk2gUR6cNHhCz-6" value="+ equals() : boolean&#xa;" style="text;align=left;verticalAlign=top;spacingLeft=4;spacingRight=4;overflow=hidden;rotatable=0;points=[[0,0.5],[1,0.5]];portConstraint=eastwest;rounded=0;shadow=0;html=0;" vertex="1" parent="OJAIJrGIk2gUR6cNHhCz-0">
          <mxGeometry y="152" width="280" height="26" as="geometry" />
        </mxCell>
        <mxCell id="OJAIJrGIk2gUR6cNHhCz-7" style="edgeStyle=orthogonalEdgeStyle;rounded=0;orthogonalLoop=1;jettySize=auto;html=1;exitX=1;exitY=0.5;exitDx=0;exitDy=0;" edge="1" parent="OJAIJrGIk2gUR6cNHhCz-0" source="OJAIJrGIk2gUR6cNHhCz-3" target="OJAIJrGIk2gUR6cNHhCz-3">
          <mxGeometry relative="1" as="geometry" />
        </mxCell>
        <mxCell id="OJAIJrGIk2gUR6cNHhCz-8" style="edgeStyle=orthogonalEdgeStyle;rounded=0;orthogonalLoop=1;jettySize=auto;html=1;startArrow=diamondThin;startFill=1;strokeWidth=1;startSize=15;sourcePerimeterSpacing=1;endSize=15;endArrow=classic;endFill=1;" edge="1" parent="WIyWlLk6GJQsqaUBKTNV-1" source="OJAIJrGIk2gUR6cNHhCz-12" target="OJAIJrGIk2gUR6cNHhCz-2">
          <mxGeometry relative="1" as="geometry">
            <mxPoint x="540" y="-480" as="targetPoint" />
            <Array as="points">
              <mxPoint x="915" y="-480" />
            </Array>
          </mxGeometry>
        </mxCell>
        <mxCell id="OJAIJrGIk2gUR6cNHhCz-9" value="&lt;font style=&quot;font-size: 16px;&quot;&gt;1&lt;/font&gt;&lt;span style=&quot;color: rgba(0, 0, 0, 0); font-family: monospace; font-size: 0px; text-align: start; background-color: rgb(251, 251, 251);&quot;&gt;%3CmxGraphModel%3E%3Croot%3E%3CmxCell%20id%3D%220%22%2F%3E%3CmxCell%20id%3D%221%22%20parent%3D%220%22%2F%3E%3CmxCell%20id%3D%222%22%20value%3D%22%22%20style%3D%22endArrow%3Dnone%3Bhtml%3D1%3Brounded%3D0%3B%22%20edge%3D%221%22%20parent%3D%221%22%3E%3CmxGeometry%20width%3D%2250%22%20height%3D%2250%22%20relative%3D%221%22%20as%3D%22geometry%22%3E%3CmxPoint%20x%3D%22140%22%20y%3D%22-400%22%20as%3D%22sourcePoint%22%2F%3E%3CmxPoint%20x%3D%22140%22%20y%3D%22-360%22%20as%3D%22targetPoint%22%2F%3E%3C%2FmxGeometry%3E%3C%2FmxCell%3E%3C%2Froot%3E%3C%2FmxGraphModel%3E&lt;/span&gt;" style="edgeLabel;html=1;align=center;verticalAlign=middle;resizable=0;points=[];" connectable="0" vertex="1" parent="OJAIJrGIk2gUR6cNHhCz-8">
          <mxGeometry x="-0.9091" y="6" relative="1" as="geometry">
            <mxPoint x="-2" y="-9" as="offset" />
          </mxGeometry>
        </mxCell>
        <mxCell id="OJAIJrGIk2gUR6cNHhCz-10" value="&lt;font style=&quot;font-size: 16px;&quot;&gt;4 componentes&lt;/font&gt;" style="edgeLabel;html=1;align=center;verticalAlign=middle;resizable=0;points=[];" connectable="0" vertex="1" parent="OJAIJrGIk2gUR6cNHhCz-8">
          <mxGeometry x="0.8746" y="2" relative="1" as="geometry">
            <mxPoint x="46" y="-26" as="offset" />
          </mxGeometry>
        </mxCell>
        <mxCell id="OJAIJrGIk2gUR6cNHhCz-51" style="edgeStyle=orthogonalEdgeStyle;rounded=0;orthogonalLoop=1;jettySize=auto;html=1;endArrow=none;endFill=0;endSize=15;startSize=15;" edge="1" parent="WIyWlLk6GJQsqaUBKTNV-1" source="OJAIJrGIk2gUR6cNHhCz-12">
          <mxGeometry relative="1" as="geometry">
            <mxPoint x="500" y="-320" as="targetPoint" />
            <Array as="points">
              <mxPoint x="795" y="-320" />
            </Array>
          </mxGeometry>
        </mxCell>
        <mxCell id="OJAIJrGIk2gUR6cNHhCz-12" value="Mixta" style="swimlane;fontStyle=0;align=center;verticalAlign=top;childLayout=stackLayout;horizontal=1;startSize=30;horizontalStack=0;resizeParent=1;resizeLast=0;collapsible=1;marginBottom=0;rounded=0;shadow=0;strokeWidth=1;fillColor=#fff2cc;strokeColor=#d6b656;" vertex="1" parent="WIyWlLk6GJQsqaUBKTNV-1">
          <mxGeometry x="640" y="-240" width="310" height="120" as="geometry">
            <mxRectangle x="110" y="-20" width="160" height="26" as="alternateBounds" />
          </mxGeometry>
        </mxCell>
        <mxCell id="OJAIJrGIk2gUR6cNHhCz-13" value="" style="line;html=1;strokeWidth=1;align=left;verticalAlign=middle;spacingTop=-1;spacingLeft=3;spacingRight=3;rotatable=0;labelPosition=right;points=[];portConstraint=eastwest;" vertex="1" parent="OJAIJrGIk2gUR6cNHhCz-12">
          <mxGeometry y="30" width="310" height="8" as="geometry" />
        </mxCell>
        <mxCell id="OJAIJrGIk2gUR6cNHhCz-14" value="+ getProporcionAgua() : Real" style="text;align=left;verticalAlign=top;spacingLeft=4;spacingRight=4;overflow=hidden;rotatable=0;points=[[0,0.5],[1,0.5]];portConstraint=eastwest;" vertex="1" parent="OJAIJrGIk2gUR6cNHhCz-12">
          <mxGeometry y="38" width="310" height="26" as="geometry" />
        </mxCell>
        <mxCell id="OJAIJrGIk2gUR6cNHhCz-15" value="+ getTopografia() : Topografia[*]" style="text;align=left;verticalAlign=top;spacingLeft=4;spacingRight=4;overflow=hidden;rotatable=0;points=[[0,0.5],[1,0.5]];portConstraint=eastwest;" vertex="1" parent="OJAIJrGIk2gUR6cNHhCz-12">
          <mxGeometry y="64" width="310" height="26" as="geometry" />
        </mxCell>
        <mxCell id="OJAIJrGIk2gUR6cNHhCz-16" style="edgeStyle=orthogonalEdgeStyle;rounded=0;orthogonalLoop=1;jettySize=auto;html=1;exitX=1;exitY=0.5;exitDx=0;exitDy=0;" edge="1" parent="OJAIJrGIk2gUR6cNHhCz-12">
          <mxGeometry relative="1" as="geometry">
            <mxPoint x="240" y="77" as="sourcePoint" />
            <mxPoint x="240" y="77" as="targetPoint" />
          </mxGeometry>
        </mxCell>
        <mxCell id="OJAIJrGIk2gUR6cNHhCz-17" value="+ compararTopografia( topografia : Topogarfia ) : boolean" style="text;align=left;verticalAlign=top;spacingLeft=4;spacingRight=4;overflow=hidden;rotatable=0;points=[[0,0.5],[1,0.5]];portConstraint=eastwest;" vertex="1" parent="OJAIJrGIk2gUR6cNHhCz-12">
          <mxGeometry y="90" width="310" height="26" as="geometry" />
        </mxCell>
        <mxCell id="OJAIJrGIk2gUR6cNHhCz-19" value="Tierra" style="swimlane;fontStyle=0;align=center;verticalAlign=top;childLayout=stackLayout;horizontal=1;startSize=30;horizontalStack=0;resizeParent=1;resizeLast=0;collapsible=1;marginBottom=0;rounded=0;shadow=0;strokeWidth=1;fillColor=#fff2cc;strokeColor=#d6b656;" vertex="1" parent="WIyWlLk6GJQsqaUBKTNV-1">
          <mxGeometry x="400" y="-240" width="200" height="90" as="geometry">
            <mxRectangle x="110" y="-20" width="160" height="26" as="alternateBounds" />
          </mxGeometry>
        </mxCell>
        <mxCell id="OJAIJrGIk2gUR6cNHhCz-20" value="" style="line;html=1;strokeWidth=1;align=left;verticalAlign=middle;spacingTop=-1;spacingLeft=3;spacingRight=3;rotatable=0;labelPosition=right;points=[];portConstraint=eastwest;" vertex="1" parent="OJAIJrGIk2gUR6cNHhCz-19">
          <mxGeometry y="30" width="200" height="8" as="geometry" />
        </mxCell>
        <mxCell id="OJAIJrGIk2gUR6cNHhCz-21" value="+ getProporcionAgua() : Real" style="text;align=left;verticalAlign=top;spacingLeft=4;spacingRight=4;overflow=hidden;rotatable=0;points=[[0,0.5],[1,0.5]];portConstraint=eastwest;" vertex="1" parent="OJAIJrGIk2gUR6cNHhCz-19">
          <mxGeometry y="38" width="200" height="26" as="geometry" />
        </mxCell>
        <mxCell id="OJAIJrGIk2gUR6cNHhCz-22" style="edgeStyle=orthogonalEdgeStyle;rounded=0;orthogonalLoop=1;jettySize=auto;html=1;exitX=1;exitY=0.5;exitDx=0;exitDy=0;" edge="1" parent="OJAIJrGIk2gUR6cNHhCz-19">
          <mxGeometry relative="1" as="geometry">
            <mxPoint x="240" y="77" as="sourcePoint" />
            <mxPoint x="240" y="77" as="targetPoint" />
          </mxGeometry>
        </mxCell>
        <mxCell id="OJAIJrGIk2gUR6cNHhCz-48" style="edgeStyle=orthogonalEdgeStyle;rounded=0;orthogonalLoop=1;jettySize=auto;html=1;endArrow=none;endFill=0;endSize=15;startSize=15;" edge="1" parent="WIyWlLk6GJQsqaUBKTNV-1" source="OJAIJrGIk2gUR6cNHhCz-24">
          <mxGeometry relative="1" as="geometry">
            <mxPoint x="380" y="-320" as="targetPoint" />
            <Array as="points">
              <mxPoint x="260" y="-320" />
            </Array>
          </mxGeometry>
        </mxCell>
        <mxCell id="OJAIJrGIk2gUR6cNHhCz-24" value="Agua" style="swimlane;fontStyle=0;align=center;verticalAlign=top;childLayout=stackLayout;horizontal=1;startSize=30;horizontalStack=0;resizeParent=1;resizeLast=0;collapsible=1;marginBottom=0;rounded=0;shadow=0;strokeWidth=1;fillColor=#fff2cc;strokeColor=#d6b656;" vertex="1" parent="WIyWlLk6GJQsqaUBKTNV-1">
          <mxGeometry x="160" y="-240" width="200" height="90" as="geometry">
            <mxRectangle x="110" y="-20" width="160" height="26" as="alternateBounds" />
          </mxGeometry>
        </mxCell>
        <mxCell id="OJAIJrGIk2gUR6cNHhCz-25" value="" style="line;html=1;strokeWidth=1;align=left;verticalAlign=middle;spacingTop=-1;spacingLeft=3;spacingRight=3;rotatable=0;labelPosition=right;points=[];portConstraint=eastwest;" vertex="1" parent="OJAIJrGIk2gUR6cNHhCz-24">
          <mxGeometry y="30" width="200" height="8" as="geometry" />
        </mxCell>
        <mxCell id="OJAIJrGIk2gUR6cNHhCz-26" value="+ getProporcionAgua() : Real" style="text;align=left;verticalAlign=top;spacingLeft=4;spacingRight=4;overflow=hidden;rotatable=0;points=[[0,0.5],[1,0.5]];portConstraint=eastwest;" vertex="1" parent="OJAIJrGIk2gUR6cNHhCz-24">
          <mxGeometry y="38" width="200" height="26" as="geometry" />
        </mxCell>
        <mxCell id="OJAIJrGIk2gUR6cNHhCz-27" style="edgeStyle=orthogonalEdgeStyle;rounded=0;orthogonalLoop=1;jettySize=auto;html=1;exitX=1;exitY=0.5;exitDx=0;exitDy=0;" edge="1" parent="OJAIJrGIk2gUR6cNHhCz-24">
          <mxGeometry relative="1" as="geometry">
            <mxPoint x="240" y="77" as="sourcePoint" />
            <mxPoint x="240" y="77" as="targetPoint" />
          </mxGeometry>
        </mxCell>
        <mxCell id="OJAIJrGIk2gUR6cNHhCz-28" value="&lt;i&gt;&lt;b&gt;&lt;font style=&quot;font-size: 14px;&quot;&gt;COMPONENT&lt;/font&gt;&lt;/b&gt;&lt;/i&gt;" style="text;html=1;align=center;verticalAlign=middle;whiteSpace=wrap;rounded=0;" vertex="1" parent="WIyWlLk6GJQsqaUBKTNV-1">
          <mxGeometry x="240" y="-570" width="100" height="20" as="geometry" />
        </mxCell>
        <mxCell id="OJAIJrGIk2gUR6cNHhCz-29" value="&lt;font style=&quot;font-size: 14px;&quot;&gt;&lt;b&gt;&lt;i&gt;COMPOSITE&lt;/i&gt;&lt;/b&gt;&lt;/font&gt;" style="text;html=1;align=center;verticalAlign=middle;whiteSpace=wrap;rounded=0;" vertex="1" parent="WIyWlLk6GJQsqaUBKTNV-1">
          <mxGeometry x="640" y="-260" width="90" height="20" as="geometry" />
        </mxCell>
        <mxCell id="OJAIJrGIk2gUR6cNHhCz-30" value="&lt;b&gt;&lt;i&gt;&lt;font style=&quot;font-size: 14px;&quot;&gt;LEAF&lt;/font&gt;&lt;/i&gt;&lt;/b&gt;" style="text;html=1;align=center;verticalAlign=middle;whiteSpace=wrap;rounded=0;" vertex="1" parent="WIyWlLk6GJQsqaUBKTNV-1">
          <mxGeometry x="400" y="-260" width="50" height="20" as="geometry" />
        </mxCell>
        <mxCell id="OJAIJrGIk2gUR6cNHhCz-31" value="&lt;b&gt;&lt;i&gt;&lt;font style=&quot;font-size: 14px;&quot;&gt;LEAF&lt;/font&gt;&lt;/i&gt;&lt;/b&gt;" style="text;html=1;align=center;verticalAlign=middle;whiteSpace=wrap;rounded=0;" vertex="1" parent="WIyWlLk6GJQsqaUBKTNV-1">
          <mxGeometry x="160" y="-260" width="50" height="20" as="geometry" />
        </mxCell>
        <mxCell id="OJAIJrGIk2gUR6cNHhCz-32" value="&lt;b style=&quot;&quot;&gt;&lt;i&gt;&lt;font style=&quot;font-size: 20px;&quot;&gt;PATRON COMPOSITE&lt;/font&gt;&lt;/i&gt;&lt;/b&gt;" style="text;html=1;align=center;verticalAlign=middle;resizable=0;points=[];autosize=1;strokeColor=none;fillColor=none;" vertex="1" parent="WIyWlLk6GJQsqaUBKTNV-1">
          <mxGeometry x="-120" y="-640" width="230" height="40" as="geometry" />
        </mxCell>
        <mxCell id="OJAIJrGIk2gUR6cNHhCz-49" style="edgeStyle=orthogonalEdgeStyle;rounded=0;orthogonalLoop=1;jettySize=auto;html=1;exitX=0.5;exitY=0;exitDx=0;exitDy=0;endArrow=none;endFill=0;endSize=15;startSize=15;" edge="1" parent="WIyWlLk6GJQsqaUBKTNV-1" source="OJAIJrGIk2gUR6cNHhCz-33">
          <mxGeometry relative="1" as="geometry">
            <mxPoint x="260" y="-320" as="targetPoint" />
            <Array as="points">
              <mxPoint x="20" y="-320" />
            </Array>
          </mxGeometry>
        </mxCell>
        <mxCell id="OJAIJrGIk2gUR6cNHhCz-33" value="Pantano" style="swimlane;fontStyle=0;align=center;verticalAlign=top;childLayout=stackLayout;horizontal=1;startSize=30;horizontalStack=0;resizeParent=1;resizeLast=0;collapsible=1;marginBottom=0;rounded=0;shadow=0;strokeWidth=1;fillColor=#fff2cc;strokeColor=#d6b656;" vertex="1" parent="WIyWlLk6GJQsqaUBKTNV-1">
          <mxGeometry x="-80" y="-240" width="200" height="90" as="geometry">
            <mxRectangle x="110" y="-20" width="160" height="26" as="alternateBounds" />
          </mxGeometry>
        </mxCell>
        <mxCell id="OJAIJrGIk2gUR6cNHhCz-34" value="" style="line;html=1;strokeWidth=1;align=left;verticalAlign=middle;spacingTop=-1;spacingLeft=3;spacingRight=3;rotatable=0;labelPosition=right;points=[];portConstraint=eastwest;" vertex="1" parent="OJAIJrGIk2gUR6cNHhCz-33">
          <mxGeometry y="30" width="200" height="8" as="geometry" />
        </mxCell>
        <mxCell id="OJAIJrGIk2gUR6cNHhCz-35" value="+ getProporcionAgua() : Real" style="text;align=left;verticalAlign=top;spacingLeft=4;spacingRight=4;overflow=hidden;rotatable=0;points=[[0,0.5],[1,0.5]];portConstraint=eastwest;" vertex="1" parent="OJAIJrGIk2gUR6cNHhCz-33">
          <mxGeometry y="38" width="200" height="26" as="geometry" />
        </mxCell>
        <mxCell id="OJAIJrGIk2gUR6cNHhCz-36" style="edgeStyle=orthogonalEdgeStyle;rounded=0;orthogonalLoop=1;jettySize=auto;html=1;exitX=1;exitY=0.5;exitDx=0;exitDy=0;" edge="1" parent="OJAIJrGIk2gUR6cNHhCz-33">
          <mxGeometry relative="1" as="geometry">
            <mxPoint x="240" y="77" as="sourcePoint" />
            <mxPoint x="240" y="77" as="targetPoint" />
          </mxGeometry>
        </mxCell>
        <mxCell id="OJAIJrGIk2gUR6cNHhCz-37" value="&lt;b&gt;&lt;i&gt;&lt;font style=&quot;font-size: 14px;&quot;&gt;LEAF&lt;/font&gt;&lt;/i&gt;&lt;/b&gt;" style="text;html=1;align=center;verticalAlign=middle;whiteSpace=wrap;rounded=0;" vertex="1" parent="WIyWlLk6GJQsqaUBKTNV-1">
          <mxGeometry x="-80" y="-260" width="50" height="20" as="geometry" />
        </mxCell>
        <mxCell id="OJAIJrGIk2gUR6cNHhCz-43" style="edgeStyle=orthogonalEdgeStyle;rounded=0;orthogonalLoop=1;jettySize=auto;html=1;endArrow=block;endFill=0;endSize=15;startSize=15;sourcePerimeterSpacing=0;entryX=0.5;entryY=1;entryDx=0;entryDy=0;" edge="1" parent="WIyWlLk6GJQsqaUBKTNV-1" target="OJAIJrGIk2gUR6cNHhCz-0">
          <mxGeometry relative="1" as="geometry">
            <mxPoint x="340" y="-360" as="targetPoint" />
            <Array as="points">
              <mxPoint x="500" y="-320" />
              <mxPoint x="380" y="-320" />
            </Array>
            <mxPoint x="500" y="-240" as="sourcePoint" />
          </mxGeometry>
        </mxCell>
        <mxCell id="I-K5CZC8Bub1fappwHma-0" value="&lt;span style=&quot;font-size: 20px;&quot;&gt;&lt;b&gt;&lt;i&gt;ejercicio_06b_MasTopografias&lt;/i&gt;&lt;/b&gt;&lt;/span&gt;" style="text;html=1;align=center;verticalAlign=middle;resizable=0;points=[];autosize=1;strokeColor=none;fillColor=none;" vertex="1" parent="WIyWlLk6GJQsqaUBKTNV-1">
          <mxGeometry x="690" y="-80" width="310" height="40" as="geometry" />
        </mxCell>
      </root>
    </mxGraphModel>
  </diagram>
</mxfile>
